<svg xmlns="http://www.w3.org/2000/svg" xmlns:xlink="http://www.w3.org/1999/xlink" width="1080" zoomAndPan="magnify" viewBox="0 0 810 809.999993" height="1080" preserveAspectRatio="xMidYMid meet" version="1.0"><rect x="-81" width="972" fill="#ffffff" y="-80.999999" height="971.999992" fill-opacity="1"/><rect x="-81" width="972" fill="#ffffff" y="-80.999999" height="971.999992" fill-opacity="1"/><path fill="#000000" d="M 404.617188 716.851562 C 399.832031 716.820312 396.726562 714.125 396.015625 713.472656 L 119.71875 437.011719 C 53.957031 377.46875 31.339844 286.710938 61.988281 211.363281 C 97.707031 123.550781 187.878906 100.636719 193.949219 99.21875 C 271.429688 81.125 354.230469 114.828125 404.703125 183.589844 C 455.175781 114.828125 537.992188 81.125 615.453125 99.21875 C 619.347656 100.125 711.28125 122.507812 747.417969 211.363281 C 778.300781 287.304688 755.09375 377.949219 689.683594 437.011719 L 413.386719 713.472656 C 412.695312 714.105469 409.511719 716.886719 404.617188 716.851562 Z M 404.617188 716.851562 " fill-opacity="1" fill-rule="nonzero"/></svg>